<?xml version="1.0" encoding="utf-8"?>
<!-- Generator: Adobe Illustrator 23.0.2, SVG Export Plug-In . SVG Version: 6.00 Build 0)  -->
<svg version="1.1" xmlns="http://www.w3.org/2000/svg" xmlns:xlink="http://www.w3.org/1999/xlink" x="0px" y="0px"
	 viewBox="0 0 2048 2048" style="enable-background:new 0 0 2048 2048;" xml:space="preserve">
<style type="text/css">
	.st0{fill:url(#SVGID_1_);}
	.st1{opacity:0.81;}
	.st2{fill:#FFFFFF;}
	.st3{fill:#481212;}
	.st4{fill:#A61E22;}
	.st5{fill:none;stroke:#542A19;stroke-width:8;stroke-miterlimit:10;}
	.st6{fill:url(#SVGID_2_);stroke:#542A19;stroke-width:8;stroke-miterlimit:10;}
	.st7{fill:#542A19;}
	.st8{fill:url(#SVGID_3_);}
	.st9{fill:url(#SVGID_4_);stroke:#542A19;stroke-width:8;stroke-miterlimit:10;}
	.st10{fill:url(#SVGID_5_);}
	.st11{fill:url(#SVGID_6_);stroke:#542A19;stroke-width:8;stroke-miterlimit:10;}
	.st12{fill:url(#SVGID_7_);}
	.st13{fill:url(#SVGID_8_);stroke:#542A19;stroke-width:8;stroke-miterlimit:10;}
	.st14{fill:url(#SVGID_9_);}
	.st15{fill:url(#SVGID_10_);stroke:#542A19;stroke-width:8;stroke-miterlimit:10;}
	.st16{fill:url(#SVGID_11_);}
	.st17{fill:url(#SVGID_12_);stroke:#542A19;stroke-width:8;stroke-miterlimit:10;}
	.st18{fill:url(#SVGID_13_);}
	.st19{fill:url(#SVGID_14_);}
	.st20{fill:none;stroke:#542A19;stroke-width:40;stroke-linecap:round;stroke-linejoin:round;stroke-miterlimit:10;}
	.st21{fill:url(#SVGID_15_);stroke:#542A19;stroke-width:8;stroke-miterlimit:10;}
	.st22{display:none;}
	.st23{display:inline;}
	.st24{display:inline;fill:url(#SVGID_16_);stroke:#542A19;stroke-width:8;stroke-miterlimit:10;}
	.st25{display:none;fill:url(#SVGID_17_);stroke:#542A19;stroke-width:8;stroke-miterlimit:10;}
	.st26{fill:url(#SVGID_18_);}
	.st27{fill:url(#SVGID_19_);}
	.st28{fill:url(#SVGID_20_);}
	.st29{fill:url(#SVGID_21_);stroke:#542A19;stroke-width:8;stroke-miterlimit:10;}
	.st30{fill:url(#SVGID_22_);}
	.st31{fill:url(#SVGID_23_);}
	.st32{fill:url(#SVGID_24_);}
	.st33{display:inline;clip-path:url(#XMLID_8_);fill:#A61E22;}
	.st34{display:none;fill:#FFFFFF;stroke:#542A19;stroke-width:8;stroke-miterlimit:10;}
	.st35{fill:#542A1A;}
	.st36{fill:url(#SVGID_25_);}
	.st37{display:inline;clip-path:url(#XMLID_17_);fill:#A61E22;}
	.st38{fill:url(#SVGID_26_);}
	.st39{display:inline;clip-path:url(#XMLID_22_);fill:#A61E22;}
	.st40{fill:url(#SVGID_27_);}
	.st41{display:inline;clip-path:url(#XMLID_28_);fill:#A61E22;}
	.st42{fill:url(#SVGID_28_);}
	.st43{display:inline;clip-path:url(#XMLID_35_);fill:#A61E22;}
	.st44{fill:url(#SVGID_29_);}
	.st45{fill:url(#SVGID_30_);}
	.st46{fill:url(#SVGID_31_);}
	.st47{fill:url(#SVGID_32_);}
	.st48{display:inline;clip-path:url(#XMLID_37_);fill:#A61E22;}
	.st49{fill-rule:evenodd;clip-rule:evenodd;fill:url(#SVGID_33_);}
	.st50{fill-rule:evenodd;clip-rule:evenodd;fill:url(#SVGID_34_);}
	.st51{fill-rule:evenodd;clip-rule:evenodd;fill:url(#SVGID_35_);}
	.st52{fill:url(#SVGID_36_);}
	.st53{display:none;opacity:0.81;fill:none;stroke:#FFFFFF;stroke-width:60;stroke-linecap:round;stroke-miterlimit:10;}
	.st54{display:inline;clip-path:url(#XMLID_48_);fill:#A61E22;}
	.st55{fill-rule:evenodd;clip-rule:evenodd;fill:url(#SVGID_37_);}
	.st56{fill-rule:evenodd;clip-rule:evenodd;fill:url(#SVGID_38_);}
	.st57{fill:url(#SVGID_39_);}
	.st58{fill:url(#SVGID_40_);stroke:#542A19;stroke-width:8;stroke-miterlimit:10;}
	.st59{fill:url(#SVGID_41_);}
	.st60{fill:url(#SVGID_42_);}
	.st61{fill:url(#SVGID_43_);}
	.st62{display:inline;clip-path:url(#XMLID_49_);fill:#A61E22;}
	.st63{fill:#542A1B;}
	.st64{fill-rule:evenodd;clip-rule:evenodd;fill:url(#SVGID_44_);}
	.st65{fill:url(#SVGID_45_);}
	.st66{display:inline;clip-path:url(#XMLID_50_);fill:#A61E22;}
	.st67{display:inline;clip-path:url(#XMLID_51_);fill:#A61E22;}
	.st68{fill:url(#SVGID_46_);}
	.st69{fill:#EA6726;}
	.st70{fill:url(#SVGID_47_);}
	.st71{fill:url(#SVGID_48_);}
	.st72{fill:url(#SVGID_49_);}
	.st73{fill:url(#SVGID_50_);}
	.st74{display:none;fill:#481212;}
	.st75{display:none;fill:#A61E22;}
	.st76{fill:#461515;}
	.st77{fill:url(#SVGID_51_);}
	.st78{clip-path:url(#XMLID_52_);fill:url(#XMLID_53_);}
	.st79{fill:url(#SVGID_52_);}
	.st80{display:inline;clip-path:url(#XMLID_54_);fill:#A61E22;}
	.st81{fill:url(#SVGID_53_);}
	.st82{clip-path:url(#XMLID_55_);fill:url(#XMLID_56_);}
	.st83{fill:url(#SVGID_54_);}
	.st84{fill:url(#SVGID_55_);}
	.st85{clip-path:url(#XMLID_59_);fill:url(#XMLID_61_);}
	.st86{fill:url(#SVGID_56_);}
	.st87{clip-path:url(#SVGID_58_);}
	.st88{fill:#951B1E;}
	.st89{fill:#971B1E;}
	.st90{fill:#9A1C1F;}
	.st91{fill:#9C1D1F;}
	.st92{fill:#9F1D20;}
	.st93{fill:#A11E20;}
	.st94{fill:#A41E21;}
	.st95{fill:#A61F21;}
	.st96{fill:#A81F22;}
	.st97{fill:#AB2022;}
	.st98{fill:#AD2022;}
	.st99{fill:#AF2123;}
	.st100{fill:#B12123;}
	.st101{fill:#B32224;}
	.st102{fill:#B52224;}
	.st103{fill:#B72324;}
	.st104{fill:#BA2325;}
	.st105{fill:#BB2425;}
	.st106{fill:#BD2425;}
	.st107{fill:#BF2426;}
	.st108{fill:#C12526;}
	.st109{fill:#C32526;}
	.st110{fill:#C52526;}
	.st111{fill:#C72627;}
	.st112{fill:#C82627;}
	.st113{fill:#CA2727;}
	.st114{fill:#CC2728;}
	.st115{fill:#CD2728;}
	.st116{fill:#CF2828;}
	.st117{fill:#D02828;}
	.st118{fill:#D22928;}
	.st119{fill:#D32929;}
	.st120{fill:#D42929;}
	.st121{fill:#D62A29;}
	.st122{fill:#D72A29;}
	.st123{fill:#D82A29;}
	.st124{fill:#D92A2A;}
	.st125{fill:#DA2B2A;}
	.st126{fill:#DC2B2A;}
	.st127{fill:#DD2B2A;}
	.st128{fill:#DE2B2A;}
	.st129{fill:#DF2C2A;}
	.st130{fill:#E02C2A;}
	.st131{fill:#E12C2B;}
	.st132{fill:#E22C2B;}
	.st133{fill:#E32D2B;}
	.st134{fill:#E42D2B;}
	.st135{fill:#E52D2B;}
	.st136{fill:#E62D2B;}
	.st137{fill:#E72D2B;}
	.st138{fill:#E82D2B;}
	.st139{fill:#E92E2B;}
	.st140{fill:#E92E2C;}
	.st141{fill:#EA2E2C;}
	.st142{fill:#EB2E2C;}
	.st143{fill:#EC2E2C;}
	.st144{fill:#ED2E2C;}
	.st145{fill:#EE2E2C;}
	.st146{clip-path:url(#SVGID_60_);}
	.st147{clip-path:url(#SVGID_62_);}
	.st148{fill:#D2D3D4;}
	.st149{fill:#D4D5D6;}
	.st150{fill:#D6D7D7;}
	.st151{fill:#D8D9D9;}
	.st152{fill:#DADBDB;}
	.st153{fill:#DCDDDD;}
	.st154{fill:#DEDEDF;}
	.st155{fill:#DFE0E0;}
	.st156{fill:#E1E2E2;}
	.st157{fill:#E3E3E3;}
	.st158{fill:#E5E5E5;}
	.st159{fill:#E6E6E6;}
	.st160{fill:#E8E8E7;}
	.st161{fill:#E9E9E9;}
	.st162{fill:#EAEAEA;}
	.st163{fill:#ECEBEB;}
	.st164{fill:#EDEDED;}
	.st165{fill:#EEEEEE;}
	.st166{fill:#EFEFEF;}
	.st167{fill:#F1F0F0;}
	.st168{fill:#F2F1F1;}
	.st169{fill:#F3F2F2;}
	.st170{fill:#F4F3F3;}
	.st171{fill:#F5F4F4;}
	.st172{fill:#F6F5F5;}
	.st173{fill:#F6F6F6;}
	.st174{fill:#F7F7F7;}
	.st175{fill:#F8F8F8;}
	.st176{fill:#F9F9F9;}
	.st177{fill:#FAFAF9;}
	.st178{fill:#FAFAFA;}
	.st179{fill:#FBFBFB;}
	.st180{fill:#FCFCFC;}
	.st181{fill:#FDFDFD;}
	.st182{fill:#FEFEFD;}
	.st183{fill:#FEFEFE;}
</style>
<g id="Guides">
</g>
<g id="Layer_2">
</g>
<g id="Layer_3">
</g>
<g id="Layer_4">
	<g>
		<linearGradient id="SVGID_1_" gradientUnits="userSpaceOnUse" x1="280.28" y1="1024" x2="1767.72" y2="1024">
			<stop  offset="0" style="stop-color:#FEDC52"/>
			<stop  offset="0.9947" style="stop-color:#FCB117"/>
		</linearGradient>
		<circle class="st0" cx="1024" cy="1024" r="743.72"/>
		<g class="st1">
			<path class="st2" d="M540.23,770.15c-2.07,0-4.16-0.21-6.27-0.66c-16.21-3.44-26.55-19.38-23.11-35.58
				c21.98-103.42,83.1-188.9,176.75-247.22c76.68-47.75,173.16-74.89,264.59-74.41c16.57,0.08,29.93,13.58,29.85,30.15
				c-0.08,16.52-13.5,29.85-30,29.85c-0.05,0-0.1,0-0.16,0c-0.58,0-1.18,0-1.77,0c-130.25,0-337.77,72.7-380.58,274.11
				C566.55,760.49,554.09,770.15,540.23,770.15z"/>
		</g>
		<g>
			<g>
				<path class="st7" d="M1204.44,856.56c11-27.39,31.5-56.01,63.63-57.2c32.39-1.21,53.54,33.17,63.63,59.23
					c10.11,26.25,52.79,14.85,42.52-11.73c-18.29-47.37-51.74-89.59-106.15-91.62c-52.9-1.97-88.62,45.89-106.15,89.59
					C1151.28,871.25,1193.99,882.63,1204.44,856.56L1204.44,856.56z"/>
			</g>
			<g>
				<path class="st7" d="M716.42,856.56c11-27.39,31.49-56.01,63.62-57.2c32.39-1.21,53.55,33.17,63.63,59.23
					c10.13,26.25,52.78,14.85,42.52-11.73c-18.28-47.37-51.74-89.59-106.15-91.62c-52.9-1.97-88.6,45.89-106.15,89.59
					C663.26,871.25,705.95,882.63,716.42,856.56L716.42,856.56z"/>
			</g>
		</g>
		<g>
			<path id="XMLID_45_" class="st3" d="M1462.55,1234.91c-30.84,115.56-130.01,287.25-435.79,287.25
				c-307.53,0-406.14-174.05-436.4-289.64C575,1173.84,1478.47,1175.25,1462.55,1234.91z"/>
			<path class="st4" d="M1036.06,1522.09c1.65-0.02,3.31-0.04,4.95-0.07c0.91-0.02,1.81-0.04,2.72-0.06
				c1.43-0.03,2.86-0.06,4.28-0.1c0.98-0.03,1.94-0.06,2.91-0.09c1.34-0.04,2.69-0.08,4.02-0.13c0.99-0.04,1.96-0.08,2.95-0.12
				c1.31-0.05,2.62-0.1,3.92-0.16c1-0.05,1.98-0.1,2.97-0.15c1.27-0.06,2.54-0.12,3.81-0.19c1-0.05,1.98-0.12,2.97-0.18
				c1.25-0.07,2.5-0.14,3.74-0.22c0.96-0.06,1.91-0.13,2.86-0.2c1.26-0.09,2.52-0.17,3.77-0.26c0.95-0.07,1.89-0.15,2.84-0.22
				c1.24-0.1,2.49-0.19,3.73-0.29c0.94-0.08,1.88-0.17,2.82-0.25c1.22-0.11,2.45-0.21,3.67-0.33c0.94-0.09,1.87-0.18,2.81-0.27
				c1.2-0.12,2.41-0.23,3.61-0.36c0.92-0.09,1.83-0.2,2.75-0.3c1.2-0.13,2.41-0.26,3.61-0.39c0.9-0.1,1.79-0.21,2.68-0.31
				c1.2-0.14,2.41-0.28,3.6-0.43c0.88-0.11,1.75-0.22,2.63-0.34c1.19-0.15,2.39-0.3,3.58-0.46c0.86-0.12,1.72-0.24,2.58-0.36
				c1.19-0.16,2.38-0.33,3.56-0.5c0.84-0.12,1.68-0.25,2.52-0.37c1.19-0.18,2.38-0.35,3.56-0.53c0.82-0.13,1.63-0.26,2.45-0.39
				c1.19-0.19,2.37-0.37,3.55-0.57c0.8-0.13,1.6-0.27,2.4-0.41c1.18-0.2,2.36-0.4,3.54-0.6c0.78-0.14,1.56-0.28,2.33-0.42
				c1.18-0.21,2.36-0.42,3.53-0.64c0.77-0.14,1.52-0.29,2.29-0.44c1.17-0.22,2.34-0.45,3.51-0.68c0.75-0.15,1.49-0.3,2.23-0.45
				c1.17-0.24,2.34-0.47,3.5-0.71c0.72-0.15,1.44-0.31,2.16-0.46c1.17-0.25,2.34-0.5,3.51-0.76c0.7-0.15,1.39-0.31,2.09-0.47
				c1.17-0.26,2.34-0.52,3.5-0.79c0.69-0.16,1.37-0.32,2.05-0.48c1.16-0.27,2.33-0.55,3.48-0.83c0.66-0.16,1.32-0.33,1.98-0.49
				c1.16-0.29,2.33-0.58,3.48-0.87c0.65-0.17,1.29-0.33,1.93-0.5c1.15-0.3,2.31-0.6,3.45-0.9c0.63-0.17,1.26-0.34,1.89-0.51
				c1.15-0.31,2.3-0.62,3.44-0.94c0.61-0.17,1.21-0.34,1.81-0.51c1.16-0.33,2.31-0.65,3.46-0.99c0.58-0.17,1.16-0.34,1.74-0.51
				c1.16-0.34,2.31-0.68,3.46-1.03c0.56-0.17,1.12-0.34,1.68-0.52c1.16-0.36,2.31-0.71,3.46-1.07c0.54-0.17,1.08-0.34,1.62-0.52
				c1.16-0.37,2.31-0.74,3.46-1.12c0.52-0.17,1.03-0.34,1.55-0.52c1.16-0.38,2.31-0.77,3.45-1.16c0.5-0.17,1-0.35,1.5-0.52
				c1.15-0.4,2.3-0.8,3.44-1.2c0.49-0.17,0.97-0.35,1.46-0.52c1.15-0.41,2.29-0.82,3.42-1.24c0.47-0.17,0.93-0.34,1.39-0.52
				c1.15-0.43,2.3-0.86,3.43-1.29c0.44-0.17,0.88-0.34,1.32-0.51c1.15-0.44,2.3-0.89,3.43-1.34c0.42-0.17,0.85-0.34,1.27-0.51
				c1.15-0.46,2.29-0.92,3.43-1.38c0.4-0.17,0.81-0.33,1.21-0.5c1.15-0.47,2.29-0.95,3.42-1.43c0.39-0.16,0.77-0.33,1.16-0.49
				c1.14-0.49,2.28-0.98,3.41-1.47c0.37-0.16,0.74-0.33,1.11-0.49c1.14-0.5,2.28-1.01,3.4-1.51c0.35-0.16,0.7-0.32,1.05-0.48
				c1.14-0.52,2.28-1.04,3.4-1.56c0.33-0.16,0.66-0.31,1-0.47c1.14-0.53,2.27-1.07,3.4-1.61c0.31-0.15,0.63-0.3,0.94-0.45
				c1.14-0.55,2.27-1.1,3.39-1.66c0.3-0.15,0.6-0.3,0.89-0.45c1.13-0.56,2.26-1.13,3.38-1.7c0.28-0.14,0.56-0.29,0.84-0.43
				c1.13-0.58,2.26-1.17,3.38-1.76c0.26-0.14,0.52-0.27,0.78-0.41c1.13-0.6,2.26-1.2,3.38-1.81c0.25-0.13,0.49-0.27,0.74-0.4
				c1.13-0.61,2.25-1.23,3.36-1.85c0.23-0.13,0.46-0.26,0.69-0.39c1.12-0.63,2.24-1.26,3.36-1.9c0.21-0.12,0.43-0.25,0.64-0.37
				c1.12-0.65,2.24-1.3,3.35-1.95c0.2-0.12,0.39-0.23,0.59-0.35c1.12-0.66,2.23-1.33,3.34-2c0.18-0.11,0.36-0.22,0.54-0.33
				c1.12-0.68,2.23-1.36,3.33-2.05c0.17-0.1,0.33-0.21,0.5-0.31c1.11-0.7,2.22-1.4,3.32-2.1c0.15-0.1,0.3-0.19,0.45-0.29
				c1.11-0.71,2.22-1.43,3.31-2.15c0.14-0.09,0.27-0.18,0.4-0.27c1.11-0.73,2.2-1.46,3.29-2.2c0.13-0.09,0.25-0.17,0.38-0.26
				c1.1-0.74,2.19-1.49,3.27-2.24c0.11-0.08,0.22-0.16,0.34-0.23c1.1-0.76,2.18-1.53,3.26-2.29c0.1-0.07,0.19-0.14,0.29-0.21
				c1.09-0.78,2.18-1.56,3.26-2.35c0.08-0.06,0.16-0.12,0.25-0.18c1.09-0.8,2.17-1.6,3.25-2.4c0.07-0.05,0.14-0.1,0.2-0.15
				c1.08-0.81,2.16-1.63,3.23-2.45c0.06-0.04,0.12-0.09,0.17-0.13c1.08-0.83,2.15-1.66,3.21-2.5c0.05-0.04,0.09-0.07,0.14-0.11
				c1.07-0.85,2.14-1.69,3.19-2.55c0.04-0.03,0.07-0.06,0.11-0.09c1.06-0.86,2.12-1.72,3.17-2.59c0.03-0.02,0.05-0.04,0.08-0.06
				c1.06-0.88,2.11-1.76,3.15-2.64c0.01-0.01,0.03-0.02,0.04-0.04c1.05-0.89,2.09-1.79,3.13-2.69c0,0,0.01-0.01,0.01-0.01
				c-67.2-54.27-186.57-90.37-322.64-90.37c-136,0-255.32,36.06-322.54,90.29c5.22,4.54,10.66,8.99,16.32,13.34c0,0,0,0,0,0
				c1.13,0.87,2.26,1.73,3.41,2.59c0,0,0.01,0.01,0.01,0.01c1.15,0.86,2.3,1.71,3.46,2.57c0,0,0.01,0,0.01,0.01
				c1.16,0.85,2.32,1.69,3.5,2.52c0.01,0.01,0.02,0.02,0.04,0.03c1.16,0.82,2.32,1.64,3.5,2.46c0.03,0.02,0.06,0.04,0.09,0.06
				c1.18,0.82,2.37,1.64,3.57,2.45c0.02,0.01,0.04,0.03,0.06,0.04c1.18,0.8,2.37,1.59,3.57,2.38c0.04,0.03,0.09,0.06,0.13,0.09
				c1.19,0.79,2.4,1.57,3.61,2.34c0.05,0.03,0.09,0.06,0.14,0.09c1.2,0.77,2.4,1.53,3.62,2.29c0.06,0.04,0.12,0.08,0.19,0.12
				c1.21,0.76,2.44,1.51,3.67,2.26c0.06,0.04,0.13,0.08,0.19,0.12c1.22,0.74,2.45,1.48,3.69,2.21c0.08,0.05,0.15,0.09,0.23,0.14
				c1.23,0.73,2.46,1.45,3.71,2.16c0.09,0.05,0.18,0.1,0.27,0.16c1.23,0.71,2.48,1.41,3.73,2.11c0.1,0.06,0.2,0.12,0.31,0.17
				c1.24,0.69,2.49,1.38,3.75,2.07c0.11,0.06,0.22,0.12,0.34,0.19c1.26,0.68,2.52,1.36,3.8,2.03c0.12,0.06,0.23,0.12,0.35,0.19
				c1.26,0.67,2.54,1.33,3.82,1.99c0.13,0.07,0.26,0.13,0.39,0.2c1.26,0.65,2.53,1.28,3.81,1.92c0.15,0.08,0.31,0.15,0.46,0.23
				c1.28,0.64,2.57,1.26,3.86,1.89c0.15,0.07,0.3,0.15,0.46,0.22c1.28,0.62,2.57,1.22,3.86,1.83c0.18,0.08,0.35,0.17,0.53,0.25
				c1.28,0.6,2.56,1.19,3.86,1.77c0.2,0.09,0.39,0.18,0.59,0.27c1.28,0.58,2.57,1.15,3.86,1.72c0.22,0.1,0.43,0.19,0.65,0.29
				c1.27,0.56,2.55,1.1,3.83,1.65c0.25,0.11,0.49,0.21,0.74,0.32c1.29,0.54,2.58,1.08,3.88,1.62c0.25,0.1,0.49,0.21,0.74,0.31
				c1.3,0.53,2.61,1.06,3.93,1.58c0.25,0.1,0.51,0.2,0.76,0.31c1.3,0.51,2.61,1.02,3.92,1.53c0.28,0.11,0.56,0.22,0.84,0.33
				c1.29,0.49,2.6,0.98,3.9,1.47c0.31,0.11,0.61,0.23,0.91,0.34c1.3,0.48,2.61,0.95,3.92,1.42c0.32,0.11,0.64,0.23,0.96,0.35
				c1.3,0.46,2.6,0.91,3.91,1.37c0.34,0.12,0.68,0.24,1.03,0.36c1.31,0.45,2.62,0.89,3.94,1.33c0.35,0.12,0.7,0.24,1.06,0.36
				c1.3,0.43,2.62,0.85,3.94,1.27c0.38,0.12,0.75,0.25,1.13,0.37c1.3,0.41,2.62,0.82,3.94,1.22c0.4,0.12,0.8,0.25,1.2,0.37
				c1.31,0.4,2.64,0.79,3.96,1.18c0.41,0.12,0.82,0.25,1.24,0.37c1.31,0.38,2.63,0.76,3.96,1.13c0.44,0.12,0.87,0.25,1.31,0.37
				c1.31,0.37,2.63,0.73,3.96,1.08c0.46,0.12,0.91,0.25,1.37,0.37c1.3,0.35,2.61,0.69,3.93,1.03c0.49,0.13,0.98,0.26,1.47,0.38
				c1.31,0.33,2.62,0.66,3.94,0.99c0.51,0.13,1.01,0.26,1.52,0.38c1.3,0.32,2.62,0.63,3.93,0.94c0.53,0.13,1.06,0.26,1.6,0.38
				c1.31,0.31,2.64,0.6,3.97,0.9c0.54,0.12,1.08,0.25,1.63,0.37c1.32,0.29,2.65,0.57,3.98,0.86c0.56,0.12,1.12,0.24,1.68,0.36
				c1.32,0.28,2.65,0.54,3.98,0.81c0.58,0.12,1.16,0.24,1.75,0.36c1.31,0.26,2.64,0.51,3.96,0.76c0.61,0.12,1.22,0.24,1.84,0.35
				c1.27,0.24,2.55,0.47,3.83,0.7c0.68,0.12,1.36,0.25,2.04,0.37c1.25,0.22,2.51,0.43,3.77,0.65c0.72,0.12,1.44,0.25,2.17,0.37
				c1.3,0.22,2.62,0.42,3.93,0.63c0.69,0.11,1.38,0.22,2.07,0.33c1.31,0.2,2.64,0.4,3.96,0.59c0.71,0.11,1.41,0.21,2.12,0.32
				c1.28,0.18,2.56,0.36,3.85,0.54c0.77,0.11,1.53,0.22,2.3,0.32c1.29,0.17,2.59,0.34,3.88,0.5c0.78,0.1,1.55,0.2,2.33,0.3
				c1.28,0.16,2.58,0.31,3.88,0.46c0.81,0.09,1.61,0.19,2.42,0.29c1.28,0.15,2.58,0.28,3.87,0.42c0.83,0.09,1.66,0.18,2.49,0.27
				c1.3,0.14,2.62,0.26,3.93,0.39c0.83,0.08,1.66,0.17,2.5,0.25c1.31,0.12,2.62,0.23,3.94,0.35c0.86,0.08,1.71,0.16,2.57,0.23
				c1.28,0.11,2.58,0.2,3.87,0.31c0.91,0.07,1.81,0.15,2.72,0.21c1.28,0.09,2.57,0.18,3.86,0.27c0.93,0.06,1.86,0.13,2.79,0.19
				c1.27,0.08,2.56,0.15,3.84,0.23c0.96,0.06,1.92,0.12,2.88,0.17c1.3,0.07,2.62,0.13,3.94,0.2c0.95,0.05,1.9,0.1,2.86,0.14
				c1.31,0.06,2.63,0.11,3.95,0.16c0.98,0.04,1.94,0.08,2.92,0.12c1.32,0.05,2.66,0.08,3.99,0.13c0.99,0.03,1.96,0.07,2.95,0.09
				c1.54,0.04,3.1,0.07,4.66,0.1c0.79,0.02,1.57,0.04,2.37,0.05c1.72,0.03,3.45,0.05,5.19,0.07c0.64,0.01,1.27,0.02,1.92,0.03
				c2.38,0.02,4.77,0.03,7.18,0.03c2.4,0,4.79-0.01,7.16-0.03C1034.64,1522.12,1035.34,1522.1,1036.06,1522.09z"/>
			<path id="XMLID_3_" class="st5" d="M1462.55,1234.91c-30.84,115.56-130.01,287.25-435.79,287.25
				c-307.53,0-406.14-174.05-436.4-289.64C575,1173.84,1478.47,1175.25,1462.55,1234.91z"/>
			<radialGradient id="SVGID_2_" cx="1026.7593" cy="1168.1632" r="321.2879" gradientUnits="userSpaceOnUse">
				<stop  offset="4.854370e-03" style="stop-color:#FFFFFF"/>
				<stop  offset="0.3282" style="stop-color:#F9F9F9"/>
				<stop  offset="0.6117" style="stop-color:#EDEDED"/>
				<stop  offset="0.8793" style="stop-color:#DCDDDD"/>
				<stop  offset="1" style="stop-color:#D2D3D4"/>
			</radialGradient>
			<path class="st6" d="M577.38,1131.03c0,0-1.71,43.44,12.98,101.48l872.19,2.4c15.35-59.25,13.59-103.88,13.59-103.88
				C987.8,1064.41,577.38,1131.03,577.38,1131.03z"/>
		</g>
	</g>
</g>
<g id="Layer_5">
</g>
<g id="Layer_6">
</g>
<g id="Layer_7">
</g>
<g id="Layer_8">
</g>
<g id="Layer_9">
</g>
<g id="Layer_10">
</g>
<g id="Layer_11">
</g>
<g id="Layer_12">
</g>
<g id="Layer_13">
</g>
<g id="Layer_14">
</g>
<g id="Layer_15">
</g>
<g id="Layer_16">
</g>
<g id="Layer_17">
</g>
<g id="Layer_18">
</g>
<g id="Layer_19">
</g>
<g id="Layer_20">
</g>
<g id="Layer_21">
</g>
<g id="Layer_22">
</g>
<g id="Layer_23">
</g>
<g id="Layer_24">
</g>
<g id="Layer_25">
</g>
<g id="Layer_26">
</g>
</svg>
