<?xml version="1.0" encoding="utf-8"?>
<!-- Generator: Adobe Illustrator 23.0.2, SVG Export Plug-In . SVG Version: 6.00 Build 0)  -->
<svg version="1.1" xmlns="http://www.w3.org/2000/svg" xmlns:xlink="http://www.w3.org/1999/xlink" x="0px" y="0px"
	 viewBox="0 0 2048 2048" style="enable-background:new 0 0 2048 2048;" xml:space="preserve">
<style type="text/css">
	.st0{fill:url(#SVGID_1_);}
	.st1{fill:#461515;}
	.st2{fill:url(#SVGID_2_);}
	.st3{clip-path:url(#XMLID_13_);fill:url(#XMLID_14_);}
	.st4{fill:#4FB44D;}
	.st5{fill:#CEE18C;}
	.st6{fill:url(#SVGID_3_);}
	.st7{fill:url(#SVGID_4_);}
	.st8{fill:url(#SVGID_5_);}
	.st9{opacity:0.81;}
	.st10{fill:#FFFFFF;}
	.st11{fill:#542A1A;}
	.st12{fill:#F1A221;}
	.st13{fill:url(#SVGID_6_);}
	.st14{fill:#EA6726;}
	.st15{fill:url(#SVGID_7_);}
	.st16{display:none;}
	.st17{display:inline;}
	.st18{display:inline;clip-path:url(#XMLID_15_);fill:#A61E22;}
	.st19{display:none;fill:#FFFFFF;stroke:#542A19;stroke-width:8;stroke-miterlimit:10;}
	.st20{fill:#542A19;}
	.st21{fill:none;stroke:#542A1A;stroke-width:5;stroke-miterlimit:10;}
	.st22{fill:url(#SVGID_8_);}
	.st23{display:none;fill:none;stroke:#444B54;stroke-width:40;stroke-linecap:round;stroke-miterlimit:10;}
	.st24{display:none;fill:#F2A81E;}
	.st25{opacity:0.76;fill:#461515;}
	.st26{display:inline;clip-path:url(#XMLID_17_);fill:#A61E22;}
	.st27{fill:url(#SVGID_9_);}
	.st28{display:inline;clip-path:url(#XMLID_18_);fill:#A61E22;}
	.st29{display:inline;clip-path:url(#XMLID_21_);fill:#A61E22;}
	.st30{fill:#B2D1E1;}
	.st31{fill:#CFDAE0;}
	.st32{fill:url(#SVGID_10_);}
	.st33{opacity:0.81;fill:none;stroke:#FFFFFF;stroke-width:60;stroke-linecap:round;stroke-miterlimit:10;}
	.st34{display:inline;clip-path:url(#XMLID_22_);fill:#A61E22;}
	.st35{display:none;fill:none;stroke:#542A19;stroke-width:40;stroke-linecap:round;stroke-miterlimit:10;}
	.st36{fill:#451716;}
	.st37{fill:url(#SVGID_11_);}
	.st38{display:inline;clip-path:url(#XMLID_23_);fill:#A61E22;}
	.st39{display:inline;clip-path:url(#XMLID_24_);fill:#A61E22;}
	.st40{fill:url(#SVGID_12_);}
	.st41{fill:#542A1B;}
	.st42{fill:url(#SVGID_13_);}
	.st43{display:inline;clip-path:url(#XMLID_25_);fill:#A61E22;}
	.st44{display:inline;clip-path:url(#XMLID_26_);fill:#A61E22;}
	.st45{fill:url(#SVGID_14_);}
	.st46{fill:url(#SVGID_15_);}
	.st47{fill:url(#SVGID_16_);}
	.st48{opacity:0.64;fill:#606161;}
	.st49{fill:url(#SVGID_17_);}
	.st50{fill:url(#SVGID_18_);}
	.st51{fill:url(#SVGID_19_);}
	.st52{fill:#441716;}
	.st53{fill:url(#SVGID_20_);}
	.st54{fill:none;stroke:#451716;stroke-width:20;stroke-linecap:round;stroke-miterlimit:10;}
	.st55{fill:url(#SVGID_21_);}
	.st56{fill:url(#SVGID_22_);}
	.st57{fill:#F1A81F;}
	.st58{fill:url(#SVGID_23_);}
	.st59{fill:url(#SVGID_24_);}
	.st60{fill:#680D0D;}
	.st61{fill:#A61E22;}
	.st62{fill:url(#SVGID_25_);}
	.st63{fill:url(#SVGID_26_);}
	.st64{fill:url(#SVGID_27_);}
	.st65{fill:none;stroke:#451716;stroke-width:40;stroke-linecap:round;stroke-miterlimit:10;}
	.st66{fill:url(#SVGID_28_);}
	.st67{fill:url(#SVGID_29_);}
	.st68{fill:#F1F2F2;}
	.st69{fill:#BE1E2D;}
	.st70{fill:url(#SVGID_30_);}
	.st71{fill:#E6E7E8;}
	.st72{fill:url(#SVGID_31_);}
	.st73{fill:#7AA540;}
	.st74{fill:url(#SVGID_32_);}
	.st75{fill:url(#SVGID_33_);}
	.st76{fill:url(#SVGID_34_);}
	.st77{fill:url(#SVGID_35_);}
	.st78{fill:url(#SVGID_36_);}
	.st79{fill:url(#SVGID_37_);}
	.st80{fill:url(#SVGID_38_);}
	.st81{fill:url(#SVGID_39_);}
	.st82{fill:url(#SVGID_40_);}
	.st83{fill:url(#SVGID_41_);}
	.st84{fill:url(#SVGID_42_);}
	.st85{fill:url(#SVGID_43_);}
	.st86{fill:url(#SVGID_44_);}
	.st87{fill:url(#SVGID_45_);}
	.st88{fill:url(#SVGID_46_);}
	.st89{fill:url(#SVGID_47_);}
	.st90{fill:url(#SVGID_48_);}
	.st91{fill:url(#SVGID_49_);}
	.st92{fill:url(#SVGID_50_);}
	.st93{fill:url(#SVGID_51_);}
	.st94{fill:url(#SVGID_52_);}
	.st95{fill:url(#SVGID_53_);}
	.st96{fill:#D1D3D4;}
</style>
<g id="Guides">
</g>
<g id="Layer_2">
</g>
<g id="Layer_3">
</g>
<g id="Layer_4">
</g>
<g id="Layer_5">
</g>
<g id="Layer_6">
</g>
<g id="Layer_7">
</g>
<g id="Layer_8">
</g>
<g id="Layer_9">
	<g>
		<g>
			<g>
				<g>
					<g>
						<g>
							<linearGradient id="SVGID_1_" gradientUnits="userSpaceOnUse" x1="280.9768" y1="1024" x2="1768.4167" y2="1024">
								<stop  offset="0" style="stop-color:#FEDC52"/>
								<stop  offset="0.9947" style="stop-color:#FCB117"/>
							</linearGradient>
							<circle class="st0" cx="1024.7" cy="1024" r="743.72"/>
							<g class="st9">
								<path class="st10" d="M540.93,770.15c-2.07,0-4.16-0.21-6.27-0.66c-16.21-3.44-26.55-19.38-23.11-35.58
									c21.98-103.42,83.1-188.9,176.75-247.22c76.68-47.75,173.16-74.86,264.59-74.41c16.57,0.08,29.93,13.58,29.85,30.15
									c-0.08,16.52-13.5,29.85-30,29.85c-0.05,0-0.1,0-0.16,0c-130.12-0.66-339.34,71.79-382.34,274.11
									C567.24,760.49,554.79,770.15,540.93,770.15z"/>
							</g>
						</g>
						<g class="st16">
							<defs>
								<path id="XMLID_4_" d="M1463.25,1233.19c-30.84,118.15-130.01,293.67-435.79,293.67c-307.53,0-406.14-177.95-436.4-296.12
									C575.7,1170.75,1479.17,1172.2,1463.25,1233.19z"/>
							</defs>
							<use xlink:href="#XMLID_4_"  style="display:inline;overflow:visible;fill:#481212;"/>
							<clipPath id="XMLID_13_" class="st17">
								<use xlink:href="#XMLID_4_"  style="overflow:visible;"/>
							</clipPath>
							
								<ellipse style="display:inline;clip-path:url(#XMLID_13_);fill:#A61E22;" cx="1027.46" cy="1526.86" rx="380.28" ry="196.38"/>
							
								<use xlink:href="#XMLID_4_"  style="display:inline;overflow:visible;fill:none;stroke:#542A19;stroke-width:8;stroke-miterlimit:10;"/>
						</g>
						<path class="st19" d="M578.08,1126.98c0,0-1.71,44.41,12.98,103.75l872.19,2.45c15.35-60.57,13.59-106.21,13.59-106.21
							C988.49,1058.87,578.08,1126.98,578.08,1126.98z"/>
					</g>
				</g>
			</g>
			<g>
				<g>
					<g class="st16">
						<defs>
							<path id="XMLID_3_" d="M1460.49,1233.19c-30.84,118.15-130.01,293.67-435.79,293.67c-307.53,0-406.14-177.95-436.4-296.12
								C572.94,1170.75,1476.41,1172.2,1460.49,1233.19z"/>
						</defs>
						<use xlink:href="#XMLID_3_"  style="display:inline;overflow:visible;fill:#481212;"/>
						<clipPath id="XMLID_14_" class="st17">
							<use xlink:href="#XMLID_3_"  style="overflow:visible;"/>
						</clipPath>
						<ellipse style="display:inline;clip-path:url(#XMLID_14_);fill:#A61E22;" cx="1024.7" cy="1526.86" rx="380.28" ry="196.38"/>
						
							<use xlink:href="#XMLID_3_"  style="display:inline;overflow:visible;fill:none;stroke:#542A19;stroke-width:8;stroke-miterlimit:10;"/>
					</g>
					<path class="st19" d="M575.32,1126.98c0,0-1.71,44.41,12.98,103.75l872.19,2.45c15.35-60.57,13.59-106.21,13.59-106.21
						C985.73,1058.87,575.32,1126.98,575.32,1126.98z"/>
					<g>
						<ellipse class="st20" cx="773.63" cy="837.74" rx="62.77" ry="88.74"/>
						<ellipse class="st20" cx="1270.25" cy="837.74" rx="62.77" ry="88.74"/>
					</g>
				</g>
			</g>
		</g>
		<g>
			<g>
				<g>
					<path class="st36" d="M1308.28,1284.6H750.66c-11.05,0-20-8.95-20-20s8.95-20,20-20h557.62c11.05,0,20,8.95,20,20
						S1319.32,1284.6,1308.28,1284.6z"/>
				</g>
			</g>
		</g>
	</g>
</g>
<g id="Layer_10">
</g>
<g id="Layer_11">
</g>
<g id="Layer_12">
</g>
<g id="Layer_13">
</g>
<g id="Layer_14">
</g>
<g id="Layer_15">
</g>
<g id="Layer_16">
</g>
<g id="Layer_17">
</g>
<g id="Layer_18">
</g>
<g id="Layer_19">
</g>
<g id="Layer_20">
</g>
<g id="Layer_21">
</g>
<g id="Layer_22">
</g>
<g id="Layer_23">
</g>
<g id="Layer_24">
</g>
<g id="Layer_25">
</g>
<g id="Layer_26">
</g>
</svg>
